<svg version="1.1" xmlns="http://www.w3.org/2000/svg" viewBox="0 0 156.11467583963167 128.43033499089302" width="312.22935167926335" height="256.86066998178603">
  <!-- svg-source:excalidraw -->
  
  <defs>
    <style>
      @font-face {
        font-family: "Virgil";
        src: url("https://excalidraw.com/Virgil.woff2");
      }
      @font-face {
        font-family: "Cascadia";
        src: url("https://excalidraw.com/Cascadia.woff2");
      }
    </style>
  </defs>
  <g transform="translate(120.73736339495463 12.307028404061612) rotate(0 -42.68002547513879 51.908139091384896)" stroke="none"><path fill="#000000" d="M -0.65,5.21 Q -0.65,5.21 -5.95,4.54 -11.26,3.88 -17.94,3.62 -24.62,3.35 -29.50,3.24 -34.37,3.12 -41.47,3.04 -48.57,2.97 -53.95,3.55 -59.32,4.12 -64.59,6.05 -69.85,7.97 -74.09,11.36 -78.34,14.75 -83.23,19.51 -88.12,24.26 -92.09,28.82 -96.07,33.38 -99.79,39.54 -103.51,45.70 -104.29,52.20 -105.07,58.70 -103.36,62.74 -101.65,66.78 -98.53,70.98 -95.41,75.18 -92.26,78.20 -89.10,81.22 -83.47,85.26 -77.83,89.30 -72.06,91.17 -66.29,93.04 -58.02,95.07 -49.75,97.10 -42.01,98.42 -34.28,99.73 -26.10,100.19 -17.92,100.64 -10.22,100.10 -2.51,99.55 2.94,96.83 8.41,94.11 12.72,85.52 17.03,76.93 17.87,72.64 18.71,68.36 19.28,61.01 19.85,53.66 19.93,48.88 20.01,44.09 18.79,38.65 17.57,33.21 14.68,28.77 11.80,24.33 8.13,20.56 4.46,16.79 -2.19,14.02 -8.85,11.25 -13.26,10.69 -17.67,10.12 -21.59,9.99 -25.50,9.86 -26.34,9.70 -27.17,9.54 -27.91,9.13 -28.65,8.71 -29.22,8.08 -29.79,7.45 -30.13,6.67 -30.47,5.89 -30.54,5.04 -30.61,4.19 -30.41,3.37 -30.20,2.54 -29.75,1.83 -29.29,1.11 -28.63,0.58 -27.97,0.04 -27.17,-0.24 -26.37,-0.54 -25.52,-0.56 -24.67,-0.59 -23.86,-0.34 -23.05,-0.09 -22.36,0.39 -21.67,0.89 -21.17,1.58 -20.67,2.26 -20.42,3.08 -20.17,3.89 -20.19,4.74 -20.21,5.59 -20.50,6.39 -20.79,7.18 -21.32,7.85 -21.86,8.51 -22.57,8.97 -23.29,9.43 -24.11,9.64 -24.93,9.84 -25.78,9.78 -26.63,9.71 -27.41,9.38 -28.19,9.04 -28.83,8.48 -29.46,7.91 -29.88,7.17 -30.30,6.43 -30.46,5.60 -30.62,4.76 -30.51,3.92 -30.40,3.08 -30.02,2.32 -29.65,1.55 -29.05,0.95 -28.45,0.35 -27.69,-0.02 -26.92,-0.40 -26.08,-0.52 -25.24,-0.63 -25.24,-0.63 -25.24,-0.63 -21.04,-0.49 -16.84,-0.34 -11.59,0.35 -6.33,1.05 -1.34,2.43 3.65,3.82 7.83,6.66 12.02,9.50 16.37,14.15 20.73,18.80 24.25,24.82 27.77,30.83 29.14,37.51 30.51,44.20 30.23,53.05 29.95,61.91 29.47,66.22 28.99,70.54 27.77,75.94 26.56,81.34 24.01,86.74 21.46,92.14 18.31,97.12 15.16,102.11 11.25,105.00 7.33,107.89 3.17,108.92 -0.97,109.95 -9.63,110.54 -18.29,111.14 -22.87,110.98 -27.45,110.81 -35.45,109.59 -43.44,108.36 -47.74,107.86 -52.03,107.36 -60.20,105.35 -68.36,103.34 -76.09,100.63 -83.82,97.93 -90.13,93.34 -96.43,88.75 -100.18,85.04 -103.93,81.32 -107.70,75.91 -111.47,70.50 -113.48,64.41 -115.49,58.32 -114.22,49.72 -112.95,41.11 -111.03,37.32 -109.12,33.52 -106.55,30.00 -103.98,26.48 -99.71,21.60 -95.44,16.72 -90.30,11.74 -85.16,6.76 -79.28,2.43 -73.40,-1.89 -67.60,-3.98 -61.80,-6.07 -55.15,-6.80 -48.49,-7.52 -41.31,-7.45 -34.12,-7.38 -29.15,-7.26 -24.19,-7.13 -17.07,-6.83 -9.96,-6.53 -4.65,-5.87 0.65,-5.21 1.26,-5.05 1.88,-4.90 2.43,-4.60 2.99,-4.31 3.47,-3.89 3.94,-3.46 4.30,-2.94 4.66,-2.42 4.88,-1.83 5.10,-1.23 5.17,-0.61 5.25,0.01 5.17,0.64 5.09,1.27 4.86,1.86 4.64,2.45 4.28,2.97 3.91,3.49 3.44,3.91 2.96,4.33 2.40,4.62 1.84,4.91 1.22,5.06 0.61,5.21 -0.01,5.21 -0.65,5.21 -0.65,5.21 L -0.65,5.21 Z"></path></g></svg>