<svg version="1.1" xmlns="http://www.w3.org/2000/svg" viewBox="0 0 116.89519297058496 139.96547701120062" width="233.79038594116992" height="279.93095402240124">
  <!-- svg-source:excalidraw -->
  
  <defs>
    <style>
      @font-face {
        font-family: "Virgil";
        src: url("https://excalidraw.com/Virgil.woff2");
      }
      @font-face {
        font-family: "Cascadia";
        src: url("https://excalidraw.com/Cascadia.woff2");
      }
    </style>
  </defs>
  <g transform="translate(21.535142020307376 129.96547701120062) rotate(0 42.68002547513879 -54.21516749544651)" stroke="none"><path fill="#000000" d="M -4.47,-2.75 Q -4.47,-2.75 0.83,-11.37 6.13,-19.99 12.45,-29.09 18.76,-38.18 32.14,-54.75 45.51,-71.31 54.53,-81.68 63.54,-92.04 68.03,-97.10 72.51,-102.15 77.28,-107.33 82.05,-112.51 82.79,-112.93 83.52,-113.35 84.36,-113.51 85.19,-113.68 86.03,-113.56 86.88,-113.45 87.64,-113.08 88.40,-112.70 89.01,-112.11 89.61,-111.51 89.99,-110.75 90.37,-109.99 90.49,-109.15 90.61,-108.30 90.45,-107.47 90.29,-106.63 89.88,-105.89 89.46,-105.15 88.83,-104.58 88.20,-104.01 87.42,-103.67 86.64,-103.33 85.80,-103.26 84.95,-103.19 84.12,-103.39 83.30,-103.59 82.58,-104.05 81.86,-104.50 81.33,-105.16 80.79,-105.82 80.50,-106.62 80.20,-107.42 80.17,-108.26 80.15,-109.11 80.39,-109.93 80.64,-110.74 81.13,-111.43 81.63,-112.13 82.31,-112.62 83.00,-113.12 83.81,-113.38 84.63,-113.63 85.48,-113.61 86.33,-113.59 87.12,-113.30 87.92,-113.01 88.59,-112.48 89.25,-111.95 89.71,-111.23 90.17,-110.52 90.38,-109.70 90.59,-108.87 90.52,-108.02 90.46,-107.18 90.12,-106.39 89.79,-105.61 89.23,-104.98 88.66,-104.34 88.66,-104.34 88.66,-104.34 84.52,-99.77 80.38,-95.19 75.92,-90.17 71.47,-85.15 62.58,-74.93 53.69,-64.71 40.54,-48.45 27.39,-32.18 21.24,-23.33 15.08,-14.49 9.78,-5.86 4.47,2.75 4.07,3.24 3.68,3.74 3.18,4.13 2.68,4.51 2.10,4.77 1.52,5.02 0.89,5.13 0.27,5.24 -0.35,5.20 -0.98,5.15 -1.59,4.96 -2.19,4.77 -2.73,4.44 -3.27,4.10 -3.71,3.65 -4.16,3.20 -4.48,2.66 -4.80,2.11 -4.99,1.51 -5.17,0.90 -5.20,0.27 -5.24,-0.35 -5.12,-0.98 -5.00,-1.60 -4.73,-2.17 -4.47,-2.75 -4.47,-2.75 L -4.47,-2.75 Z"></path></g><g transform="translate(10 10) rotate(0 43.83353967716948 58.82922430356962)" stroke="none"><path fill="#000000" d="M 3.20,-4.16 Q 3.20,-4.16 11.82,2.47 20.45,9.10 32.31,20.75 44.17,32.40 50.54,39.35 56.90,46.30 60.86,50.52 64.83,54.73 67.76,59.69 70.68,64.65 72.20,70.03 73.72,75.40 76.20,80.19 78.68,84.98 79.57,89.19 80.45,93.40 84.89,97.91 89.33,102.43 90.82,107.39 92.31,112.34 92.60,114.71 92.88,117.08 92.84,117.93 92.79,118.78 92.48,119.57 92.17,120.36 91.62,121.01 91.07,121.65 90.34,122.09 89.61,122.53 88.78,122.72 87.95,122.90 87.11,122.81 86.26,122.72 85.49,122.36 84.72,122.00 84.10,121.42 83.48,120.84 83.08,120.09 82.69,119.34 82.55,118.50 82.41,117.66 82.55,116.82 82.68,115.98 83.08,115.23 83.48,114.48 84.09,113.89 84.71,113.31 85.48,112.95 86.25,112.59 87.10,112.50 87.94,112.41 88.77,112.59 89.60,112.77 90.33,113.21 91.06,113.65 91.61,114.29 92.16,114.94 92.48,115.73 92.79,116.52 92.84,117.37 92.89,118.22 92.66,119.04 92.43,119.86 91.96,120.56 91.48,121.26 90.80,121.78 90.13,122.29 89.32,122.56 88.52,122.84 87.67,122.84 86.82,122.84 86.01,122.57 85.20,122.30 84.53,121.78 83.85,121.27 83.37,120.57 82.90,119.86 82.67,119.04 82.44,118.23 82.44,118.23 82.44,118.23 82.29,116.15 82.13,114.06 79.99,109.94 77.84,105.82 74.74,101.40 71.63,96.97 70.03,91.97 68.43,86.96 66.58,83.04 64.73,79.13 63.02,74.86 61.32,70.58 59.24,66.25 57.17,61.92 53.16,57.66 49.14,53.39 42.97,46.64 36.80,39.89 25.42,28.65 14.03,17.42 5.41,10.79 -3.20,4.16 -3.65,3.72 -4.10,3.27 -4.43,2.73 -4.77,2.19 -4.96,1.59 -5.15,0.99 -5.20,0.36 -5.24,-0.27 -5.13,-0.89 -5.02,-1.51 -4.77,-2.09 -4.51,-2.67 -4.13,-3.17 -3.74,-3.68 -3.25,-4.07 -2.75,-4.47 -2.18,-4.73 -1.60,-5.00 -0.98,-5.12 -0.36,-5.24 0.26,-5.20 0.90,-5.17 1.50,-4.99 2.11,-4.80 2.65,-4.48 3.20,-4.16 3.20,-4.16 L 3.20,-4.16 Z"></path></g></svg>